<?xml version="1.0" encoding="UTF-8" standalone="no"?>
<!DOCTYPE svg PUBLIC "-//W3C//DTD SVG 1.1//EN" "http://www.w3.org/Graphics/SVG/1.1/DTD/svg11.dtd">
<svg width="100%" height="100%" viewBox="0 0 40 42" version="1.1" xmlns="http://www.w3.org/2000/svg" xmlns:xlink="http://www.w3.org/1999/xlink" xml:space="preserve" xmlns:serif="http://www.serif.com/" style="fill-rule:evenodd;clip-rule:evenodd;stroke-linejoin:round;stroke-miterlimit:2;">
    <g transform="matrix(1,0,0,1,-637.131,-144.1)">
        <g transform="matrix(1.39181e-17,0.227299,-0.227299,1.39181e-17,755.315,149.754)">
            <path d="M126.812,387.925L156.31,404.956L156.31,439.018L126.812,456.049L97.313,439.018L97.313,404.956L126.812,387.925Z" style="fill:rgb(237,237,237);"/>
        </g>
        <g transform="matrix(2.55393e-17,0.417088,-0.417088,2.55393e-17,838.59,103.512)">
            <path d="M126.812,387.925L156.31,404.956L156.31,439.018L126.812,456.049L97.313,439.018L97.313,404.956L126.812,387.925Z" style="fill:rgb(47,91,121);"/>
        </g>
        <g transform="matrix(1.39181e-17,0.227299,-0.227299,1.39181e-17,740.791,140.811)">
            <path d="M126.812,387.925L156.31,404.956L156.31,439.018L126.812,456.049L97.313,439.018L97.313,404.956L126.812,387.925Z"/>
        </g>
    </g>
</svg>
